<!-- Generated by IcoMoon.io -->
<svg version="1.1" xmlns="http://www.w3.org/2000/svg" width="1024" height="1024" viewBox="0 0 1024 1024">
<title>testlink</title>
<g id="icomoon-ignore">
</g>
<path fill="#000" d="M518.228 11.498l-1.862 107.098-53.083 10.245c-29.8 5.588-74.502 20.488-100.578 32.594-93.128 43.77-180.668 160.179-195.568 261.69l-6.519 43.77-132.24 3.725c-71.708 0.931 8.381 3.725 178.806 4.656l309.185 1.862 1.862 323.154c1.862 230.026 3.725 283.109 7.451 184.393l4.656-138.76 55.878-10.245c151.798-28.869 277.521-160.179 290.559-304.527l5.588-53.083 117.341-3.725c64.259-0.931-15.832-3.725-177.874-4.656l-296.146-1.862-2.794-282.177c-0.931-154.592-2.794-232.82-4.656-174.148z"></path>
</svg>
