<svg aria-hidden="true" style="position: absolute; width: 0; height: 0; overflow: hidden;" version="1.1" xmlns="http://www.w3.org/2000/svg" xmlns:xlink="http://www.w3.org/1999/xlink">
<defs>
<symbol id="icon-testlink" viewBox="0 0 32 32">
<title>testlink</title>
<path d="M16.195 0.359l-0.058 3.347-1.659 0.32c-0.931 0.175-2.328 0.64-3.143 1.019-2.91 1.368-5.646 5.006-6.112 8.178l-0.204 1.368-4.133 0.116c-2.241 0.029 0.262 0.116 5.588 0.146l9.662 0.058 0.058 10.099c0.058 7.188 0.116 8.847 0.233 5.762l0.145-4.336 1.746-0.32c4.744-0.902 8.673-5.006 9.080-9.516l0.175-1.659 3.667-0.116c2.008-0.029-0.495-0.116-5.559-0.146l-9.255-0.058-0.087-8.818c-0.029-4.831-0.087-7.276-0.145-5.442z"></path>
</symbol>
</defs>
</svg>
